<svg width="256" height="256" viewBox="0 0 256 256" fill="none" xmlns="http://www.w3.org/2000/svg">
<rect width="256" height="256" rx="2" fill="#7F0303"/>
<path d="M70.9091 122.692C62.9713 122.645 55.6402 121.437 48.9512 119.033C42.2621 116.664 36.4972 113.137 31.6918 108.451C26.8862 103.801 23.1812 97.9927 20.5769 91.0269C17.9723 84.0963 16.6798 76.0446 16.734 66.9779C16.7847 58.5109 18.1006 50.8629 20.682 43.9633C23.2633 37.0991 26.9678 31.1941 31.8304 26.3192C36.4802 21.6194 42.2527 17.9848 49.1476 15.4506C56.0072 12.9161 63.5294 11.6558 71.6437 11.7043C76.1241 11.7311 80.1798 12.0023 83.8106 12.518C87.4061 13.0334 90.7536 13.7238 93.8181 14.5536C97.023 15.49 99.9098 16.5304 102.514 17.6397C105.118 18.7843 107.405 19.8211 109.339 20.7852L109.185 46.6802L106.045 46.6614C104.711 45.5244 103.026 44.1384 101.024 42.5741C98.9874 40.9743 96.7033 39.4436 94.1372 37.8759C91.5003 36.343 88.6858 35.0208 85.6226 33.9794C82.5596 32.9026 79.2818 32.3538 75.7892 32.3329C71.9085 32.3097 68.2359 32.8875 64.7358 34.1014C61.236 35.28 58.0133 37.307 55.0332 40.0763C52.1946 42.7759 49.8799 46.3607 48.1245 50.8308C46.369 55.3009 45.4545 60.7286 45.4161 67.1495C45.3762 73.8172 46.2952 79.4323 48.1382 83.924C50.0164 88.4159 52.359 91.9579 55.2012 94.5504C58.1138 97.1786 61.3483 99.0678 64.9048 100.218C68.4612 101.368 72.021 101.954 75.5137 101.975C78.8652 101.995 82.1844 101.521 85.4713 100.553C88.7582 99.5846 91.8004 98.2269 94.5623 96.5499C96.899 95.188 99.0952 93.7193 101.115 92.1791C103.136 90.6035 104.802 89.2728 106.079 88.1515L108.936 88.1686L108.784 113.711C106.095 114.894 103.548 116.008 101.072 117.052C98.6318 118.095 96.0509 118.997 93.3653 119.722C89.8667 120.689 86.5811 121.445 83.5087 121.956C80.4713 122.503 76.2363 122.724 70.9091 122.692Z" fill="#ECEFF1"/>
<path d="M236.569 14.7752L196.982 121.332L166.148 121.148L127.839 14.1247L156.768 14.2977L182.144 89.4206L208.417 14.6067L236.569 14.7752V14.7752Z" fill="#ECEFF1"/>
<path d="M117.663 239.433L90.1099 239.268L90.3914 192.206L49.7497 191.963L49.4682 239.025L21.9151 238.86L22.554 132.07L50.1071 132.235L49.8732 171.324L90.5502 171.568L90.784 132.478L118.337 132.643L117.698 239.433L117.663 239.433Z" fill="#ECEFF1"/>
<path d="M238.622 167.023C238.593 171.821 237.719 176.473 236.034 181.014C234.348 185.555 231.926 189.386 228.803 192.472C224.509 196.645 219.763 199.791 214.493 201.912C209.259 204.033 202.726 205.052 194.929 205.005L177.784 204.903L177.576 239.688L150.022 239.523L150.661 132.804L195.995 133.075C202.768 133.115 208.515 133.75 213.165 134.942C217.815 136.134 221.932 137.922 225.517 140.272C229.804 143.12 233.063 146.739 235.33 151.162C237.526 155.585 238.659 160.884 238.622 167.023ZM210.148 167.487C210.166 164.489 209.37 161.873 207.76 159.711C206.15 157.514 204.254 155.986 202.107 155.126C199.257 153.98 196.438 153.329 193.722 153.171C191.007 153.014 187.373 152.957 182.822 152.93L178.095 152.901L177.904 184.829L185.806 184.876C190.498 184.904 194.346 184.645 197.383 184.099C200.42 183.552 202.967 182.403 205.059 180.723C206.832 179.216 208.113 177.389 208.937 175.277C209.691 173.13 210.13 170.521 210.148 167.487Z" fill="#ECEFF1"/>
</svg>
