<svg width="256" height="256" viewBox="0 0 256 256" fill="none" xmlns="http://www.w3.org/2000/svg">
<rect x="5" y="5" width="246" height="246" rx="25" stroke="white" stroke-width="10"/>
<path d="M82.7044 116.208C77.4737 116.177 72.6428 115.381 68.2351 113.797C63.8273 112.236 60.0285 109.911 56.8619 106.824C53.6952 103.759 51.2538 99.9319 49.5376 95.3417C47.8213 90.7748 46.9696 85.4691 47.0054 79.4944C47.0387 73.915 47.9058 68.8753 49.6069 64.3288C51.3079 59.8056 53.749 55.9145 56.9532 52.7021C60.0173 49.6052 63.8211 47.2101 68.3645 45.5401C72.8847 43.8701 77.8415 43.0395 83.1885 43.0715C86.1409 43.0892 88.8134 43.2679 91.2059 43.6077C93.5752 43.9473 95.7811 44.4023 97.8005 44.9491C99.9124 45.5661 101.815 46.2517 103.531 46.9827C105.246 47.7369 106.754 48.4201 108.028 49.0555L107.926 66.1191L105.857 66.1068C104.978 65.3576 103.868 64.4442 102.549 63.4134C101.207 62.3592 99.7017 61.3505 98.0107 60.3175C96.2732 59.3074 94.4185 58.4361 92.4 57.7498C90.3816 57.0403 88.2217 56.6787 85.9202 56.6649C83.363 56.6496 80.9429 57.0303 78.6365 57.8302C76.3303 58.6069 74.2067 59.9426 72.2429 61.7675C70.3724 63.5464 68.8471 65.9086 67.6903 68.8542C66.5335 71.7998 65.9309 75.3765 65.9056 79.6075C65.8793 84.0013 66.4849 87.7014 67.6993 90.6612C68.937 93.6212 70.4807 95.9552 72.3536 97.6636C74.2729 99.3954 76.4043 100.64 78.7478 101.398C81.0914 102.156 83.4371 102.542 85.7386 102.556C87.9472 102.569 90.1344 102.257 92.3003 101.619C94.4662 100.981 96.4709 100.086 98.2909 98.9812C99.8307 98.0837 101.278 97.1159 102.609 96.101C103.94 95.0627 105.038 94.1859 105.88 93.447L107.763 93.4582L107.662 110.289C105.891 111.069 104.212 111.803 102.581 112.491C100.973 113.179 99.2718 113.773 97.5021 114.251C95.1967 114.888 93.0316 115.386 91.007 115.723C89.0055 116.083 86.2148 116.229 82.7044 116.208Z" fill="white"/>
<path d="M206.962 45.0951L180.876 115.312L160.558 115.19L135.313 44.6664L154.376 44.7805L171.098 94.2832L188.411 44.9841L206.962 45.0951V45.0951Z" fill="white"/>
<path d="M113.513 208.23L95.3569 208.121L95.5425 177.109L68.7613 176.949L68.5758 207.961L50.4195 207.852L50.8405 137.482L68.9968 137.591L68.8427 163.349L95.6471 163.509L95.8012 137.751L113.957 137.86L113.536 208.23L113.513 208.23Z" fill="white"/>
<path d="M208.315 160.514C208.296 163.676 207.72 166.741 206.609 169.734C205.499 172.726 203.903 175.251 201.845 177.284C199.015 180.034 195.887 182.108 192.415 183.505C188.966 184.902 184.661 185.574 179.523 185.543L168.225 185.476L168.088 208.398L149.931 208.289L150.352 137.965L180.225 138.144C184.689 138.171 188.476 138.589 191.54 139.374C194.604 140.16 197.317 141.338 199.679 142.887C202.504 144.764 204.652 147.148 206.146 150.063C207.593 152.978 208.339 156.469 208.315 160.514ZM189.552 160.821C189.563 158.845 189.039 157.121 187.978 155.697C186.917 154.249 185.668 153.242 184.253 152.675C182.375 151.92 180.517 151.491 178.728 151.387C176.938 151.283 174.544 151.246 171.545 151.228L168.43 151.209L168.304 172.248L173.511 172.279C176.603 172.298 179.138 172.127 181.14 171.767C183.141 171.407 184.82 170.65 186.198 169.542C187.367 168.549 188.211 167.345 188.754 165.954C189.25 164.539 189.54 162.82 189.552 160.821Z" fill="white"/>
</svg>
